# xmcd CD database file
#
# Track frame offsets:
#	150
#	13287
#	31465
#	45997
#	61547
#	76632
#	90302
#	102850
#	115740
#	129700
#	144440
#	159495
#	176742
#	189875
#	204505
#	220450
#
# Disc length: 3129 seconds
#
# Revision: 2
# Processed by: cddbd v1.4b41PL1 Copyright (c) Steve Scherf et al.
# Submitted via: Feurio! 1.50.2ß - http://www.feurio.com
#
DISCID=c90c3710
DTITLE=Various Artist - Karneval der Stars
DYEAR=1900
DGENRE=
TTITLE0=Marie Luise Nikuta - Mer losse uns nit lumpe
TTITLE1=Höhner  - Kumma Da!
TTITLE2=Kingsize Dick - Kölsch Kabarett
TTITLE3=Freddy und Teddy - Bella Colonia
TTITLE4=Paveier - Heut' brennt mein Iglu
TTITLE5=Robert Herchenbach - Warum, wieso, Küsse nur im Karneval
TTITLE6=De Krageknöpp - E Kölsch, e lecker Kölsch
TTITLE7=Willy Millowitsch - Da machen auch die Sachsen keen lange Faxen
TTITLE8=Die Flamingos - Op dem Maat
TTITLE9=Et Fussich Julchen - Denn mir sin' kölsche Mädcher
TTITLE10=Die drei Colonias - Es war in Königswinter
TTITLE11=Peter Horn - Et Possleed
TTITLE12=Eilemann Trio - Die Nacht ist sowieso im Eimer
TTITLE13=Bläck Föss - Wenn dann de Musik spillt
TTITLE14=Renate Fuchs - Et Klingelpötz-Leed
TTITLE15=Drei Söck - Dä Saalfetzer
EXTD=
EXTT0=
EXTT1=
EXTT2=
EXTT3=
EXTT4=
EXTT5=
EXTT6=
EXTT7=
EXTT8=
EXTT9=
EXTT10=
EXTT11=
EXTT12=
EXTT13=
EXTT14=
EXTT15=
PLAYORDER=
